<svg xmlns="http://www.w3.org/2000/svg" viewBox="0 0 172 65" width="172" height="65">
	<style>
		tspan { white-space:pre }
		.shp0 { fill: #22242d } 
		.shp1 { fill: #ededed } 
		.shp2 { fill: #6dddaf } 
		.shp3 { fill: #ffffff } 
	</style>
	<g id="Agrupar 1">
		<g id="1 copiar 4">
			<path id="Retângulo 1 cópia" class="shp0" d="M0,5v43h172v-43c0,-2.76 -2.24,-5 -5,-5h-162c-2.76,0 -5,2.24 -5,5z" />
			<path id="Retângulo 1" class="shp1" d="M0,48v12c0,2.76 2.24,5 5,5h162c2.76,0 5,-2.24 5,-5v-12z" />
			<path id=" copy copiar" fill-rule="evenodd" class="shp2" d="M31 12C31 11.45 30.54 11 30 11L12 11C11.46 11 11 11.45 11 12L11 24C11 30.57 20.2 34.73 20.59 34.9C20.72 34.96 20.86 35 21 35C21.14 35 21.28 34.96 21.41 34.9C21.8 34.73 31 30.57 31 24L31 12ZM18.64 20.15L18.64 18.04C18.64 16.5 19.84 15.23 21.33 15.23C22.81 15.23 24.02 16.5 24.02 18.04L24.02 20.15L18.64 20.15ZM27.38 21.21C27.38 20.62 26.93 20.15 26.37 20.15L26.03 20.15L26.03 18.04C26.03 15.34 23.91 13.12 21.33 13.12C18.74 13.12 16.62 15.34 16.62 18.04L16.62 20.15L16.28 20.15C15.73 20.15 15.27 20.62 15.27 21.21L15.27 27.53C15.27 28.11 15.73 28.59 16.28 28.59L26.37 28.59C26.93 28.59 27.38 28.11 27.38 27.53L27.38 21.21Z" />
			<path id="COMPRA SEGURA CERTIFICADO SSL" class="shp3" d="M48.08 13.67C48.48 13.8 48.88 13.96 49.27 14.14L50.16 11.86C49.1 11.36 47.99 11.11 46.83 11.11C45.77 11.11 44.84 11.34 44.06 11.79C43.27 12.24 42.67 12.89 42.25 13.73C41.83 14.56 41.62 15.54 41.62 16.65C41.62 18.42 42.05 19.77 42.92 20.71C43.78 21.65 45.03 22.12 46.65 22.12C47.78 22.12 48.8 21.92 49.69 21.53L49.69 19.08C49.24 19.26 48.79 19.42 48.35 19.56C47.9 19.69 47.44 19.75 46.96 19.75C45.39 19.75 44.61 18.72 44.61 16.66C44.61 15.67 44.8 14.89 45.19 14.33C45.57 13.77 46.11 13.48 46.8 13.48C47.26 13.48 47.69 13.55 48.08 13.67ZM59.84 12.49C58.96 11.56 57.66 11.1 55.95 11.1C54.25 11.1 52.95 11.57 52.05 12.51C51.16 13.45 50.71 14.81 50.71 16.59C50.71 18.39 51.16 19.76 52.06 20.71C52.96 21.65 54.25 22.12 55.94 22.12C57.65 22.12 58.95 21.65 59.83 20.71C60.72 19.77 61.16 18.41 61.16 16.6C61.16 14.8 60.72 13.43 59.84 12.49ZM55.95 13.47C56.67 13.47 57.2 13.72 57.56 14.23C57.92 14.74 58.1 15.53 58.1 16.6C58.1 17.67 57.93 18.45 57.57 18.95C57.22 19.46 56.67 19.71 55.94 19.71C54.49 19.71 53.77 18.67 53.77 16.6C53.77 14.51 54.5 13.47 55.95 13.47L55.95 13.47ZM68.91 21.97L71.08 14.27L71.14 14.27C71.09 15.44 71.05 16.17 71.05 16.46C71.04 16.76 71.03 17.03 71.03 17.28L71.03 21.97L73.7 21.97L73.7 11.26L69.83 11.26L67.63 18.87L67.57 18.87L65.33 11.26L61.46 11.26L61.46 21.97L64.04 21.97L64.04 17.32C64.04 16.59 63.99 15.57 63.88 14.26L63.95 14.26L66.15 21.97L68.91 21.97ZM81.13 12.15C80.45 11.56 79.43 11.26 78.08 11.26L74.36 11.26L74.36 21.97L77.26 21.97L77.26 18.42L78.08 18.42C79.38 18.42 80.39 18.09 81.09 17.44C81.8 16.79 82.16 15.87 82.16 14.67C82.16 13.58 81.82 12.74 81.13 12.15ZM77.26 13.6L78.01 13.6C78.81 13.6 79.22 13.96 79.22 14.68C79.22 15.11 79.09 15.45 78.83 15.7C78.57 15.94 78.23 16.06 77.79 16.06L77.26 16.06L77.26 13.6ZM87.08 18.08L89.36 21.97L92.66 21.97L89.52 17.31C90.74 16.63 91.35 15.67 91.35 14.43C91.35 12.32 89.89 11.26 86.97 11.26L83.45 11.26L83.45 21.97L86.35 21.97L86.35 18.08L87.08 18.08ZM86.35 13.45L86.92 13.45C87.92 13.45 88.41 13.82 88.41 14.56C88.41 15.45 87.91 15.9 86.89 15.9L86.35 15.9L86.35 13.45ZM102.3 21.97L98.75 11.22L94.88 11.22L91.37 21.97L94.56 21.97L95.11 19.97L98.6 19.97L99.13 21.97L102.3 21.97ZM95.71 17.59C96.16 15.91 96.44 14.79 96.57 14.22C96.7 13.64 96.79 13.23 96.84 12.99C96.88 13.25 96.99 13.7 97.14 14.32C97.29 14.94 97.43 15.44 97.53 15.83L98 17.59L95.71 17.59ZM112.13 16.92C111.77 16.45 111.13 16 110.2 15.59C109.23 15.15 108.64 14.84 108.42 14.68C108.21 14.51 108.1 14.32 108.1 14.11C108.1 13.92 108.18 13.75 108.35 13.62C108.53 13.49 108.8 13.42 109.18 13.42C109.91 13.42 110.78 13.65 111.78 14.11L112.67 11.88C111.51 11.37 110.38 11.11 109.27 11.11C108.01 11.11 107.02 11.39 106.3 11.94C105.58 12.49 105.22 13.26 105.22 14.25C105.22 14.77 105.3 15.23 105.47 15.61C105.64 16 105.9 16.34 106.25 16.64C106.6 16.94 107.12 17.25 107.82 17.56C108.6 17.91 109.08 18.14 109.25 18.25C109.43 18.36 109.56 18.47 109.64 18.58C109.73 18.69 109.77 18.82 109.77 18.97C109.77 19.2 109.67 19.4 109.46 19.54C109.26 19.69 108.95 19.77 108.52 19.77C108.02 19.77 107.47 19.69 106.87 19.53C106.27 19.37 105.7 19.15 105.14 18.87L105.14 21.44C105.67 21.69 106.17 21.87 106.66 21.97C107.14 22.07 107.74 22.12 108.46 22.12C109.31 22.12 110.06 21.98 110.7 21.69C111.34 21.4 111.82 21 112.16 20.49C112.5 19.97 112.67 19.38 112.67 18.72C112.67 18 112.49 17.4 112.13 16.92ZM119.84 19.61L116.37 19.61L116.37 17.59L119.59 17.59L119.59 15.27L116.37 15.27L116.37 13.59L119.84 13.59L119.84 11.26L113.46 11.26L113.46 21.97L119.84 21.97L119.84 19.61ZM125.6 17.94L127.52 17.94L127.52 19.61C127.16 19.7 126.76 19.74 126.33 19.74C125.54 19.74 124.93 19.48 124.51 18.95C124.1 18.43 123.89 17.66 123.89 16.66C123.89 15.64 124.12 14.86 124.58 14.31C125.04 13.76 125.7 13.48 126.55 13.48C127.47 13.48 128.32 13.67 129.1 14.05L130.02 11.78C129.57 11.59 129.05 11.43 128.45 11.3C127.85 11.17 127.21 11.11 126.53 11.11C124.75 11.11 123.36 11.59 122.37 12.55C121.38 13.52 120.89 14.86 120.89 16.59C120.89 18.36 121.34 19.73 122.24 20.68C123.15 21.64 124.43 22.12 126.08 22.12C127.59 22.12 128.98 21.9 130.24 21.47L130.24 15.7L125.6 15.7L125.6 17.94ZM137.87 11.26L137.87 17.53C137.87 18.31 137.74 18.86 137.47 19.2C137.21 19.54 136.78 19.71 136.18 19.71C135.63 19.71 135.21 19.54 134.93 19.2C134.64 18.85 134.5 18.31 134.5 17.55L134.5 11.26L131.58 11.26L131.58 17.78C131.58 19.18 131.98 20.25 132.76 21C133.55 21.75 134.67 22.12 136.14 22.12C137.64 22.12 138.79 21.73 139.58 20.97C140.38 20.2 140.78 19.11 140.78 17.71L140.78 11.26L137.87 11.26ZM145.64 18.08L147.92 21.97L151.21 21.97L148.08 17.31C149.29 16.63 149.9 15.67 149.9 14.43C149.9 12.32 148.44 11.26 145.52 11.26L142 11.26L142 21.97L144.9 21.97L144.9 18.08L145.64 18.08ZM144.9 13.45L145.48 13.45C146.47 13.45 146.97 13.82 146.97 14.56C146.97 15.45 146.46 15.9 145.45 15.9L144.9 15.9L144.9 13.45ZM160.86 21.97L157.31 11.22L153.43 11.22L149.93 21.97L153.12 21.97L153.66 19.97L157.15 19.97L157.68 21.97L160.86 21.97ZM154.26 17.59C154.71 15.91 155 14.79 155.13 14.22C155.26 13.64 155.34 13.23 155.39 12.99C155.44 13.25 155.54 13.7 155.69 14.32C155.85 14.94 155.98 15.44 156.09 15.83L156.55 17.59L154.26 17.59ZM48.24 30.02L48.7 29.09C47.97 28.74 47.11 28.56 46.14 28.56C45.22 28.56 44.42 28.75 43.75 29.14C43.07 29.53 42.55 30.09 42.19 30.81C41.83 31.53 41.65 32.36 41.65 33.32C41.65 34.85 42.03 36.03 42.77 36.85C43.52 37.68 44.57 38.1 45.95 38.1C46.89 38.1 47.69 37.98 48.34 37.74L48.34 36.79C47.5 37.02 46.76 37.14 46.11 37.14C45.05 37.14 44.24 36.81 43.67 36.15C43.1 35.48 42.81 34.55 42.81 33.33C42.81 32.15 43.11 31.22 43.7 30.54C44.29 29.86 45.1 29.52 46.12 29.52C46.83 29.52 47.53 29.69 48.24 30.02L48.24 30.02ZM55.84 37.01L51.73 37.01L51.73 33.59L55.59 33.59L55.59 32.64L51.73 32.64L51.73 29.65L55.84 29.65L55.84 28.69L50.64 28.69L50.64 37.97L55.84 37.97L55.84 37.01ZM62.18 34.11L64.43 37.97L65.71 37.97L63.18 33.8C64.43 33.37 65.06 32.54 65.06 31.31C65.06 30.44 64.78 29.78 64.24 29.35C63.69 28.91 62.85 28.69 61.71 28.69L59.15 28.69L59.15 37.97L60.23 37.97L60.23 34.11L62.18 34.11ZM60.23 29.64L61.64 29.64C62.45 29.64 63.03 29.77 63.39 30.04C63.75 30.31 63.94 30.76 63.94 31.37C63.94 31.98 63.76 32.43 63.4 32.73C63.04 33.03 62.48 33.19 61.72 33.19L60.23 33.19L60.23 29.64ZM70.53 29.65L73.48 29.65L73.48 28.69L66.49 28.69L66.49 29.65L69.44 29.65L69.44 37.97L70.53 37.97L70.53 29.65ZM77.25 37.97L77.25 28.69L76.17 28.69L76.17 37.97L77.25 37.97ZM81.95 34L85.81 34L85.81 33.05L81.95 33.05L81.95 29.65L86.06 29.65L86.06 28.69L80.87 28.69L80.87 37.97L81.95 37.97L81.95 34ZM89.19 37.97L89.19 28.69L88.11 28.69L88.11 37.97L89.19 37.97ZM98.92 30.02L99.38 29.09C98.65 28.74 97.79 28.56 96.81 28.56C95.9 28.56 95.1 28.75 94.42 29.14C93.75 29.53 93.23 30.09 92.87 30.81C92.51 31.53 92.33 32.36 92.33 33.32C92.33 34.85 92.7 36.03 93.45 36.85C94.19 37.68 95.25 38.1 96.62 38.1C97.57 38.1 98.37 37.98 99.01 37.74L99.01 36.79C98.18 37.02 97.44 37.14 96.79 37.14C95.73 37.14 94.92 36.81 94.35 36.15C93.77 35.48 93.49 34.55 93.49 33.33C93.49 32.15 93.79 31.22 94.38 30.54C94.97 29.86 95.78 29.52 96.8 29.52C97.51 29.52 98.21 29.69 98.92 30.02L98.92 30.02ZM108.3 37.97L104.63 28.65L103.72 28.65L100.04 37.97L101.14 37.97L102.28 35.02L106.02 35.02L107.18 37.97L108.3 37.97ZM102.67 34.05L103.76 31.17C103.94 30.69 104.07 30.24 104.16 29.83C104.31 30.36 104.46 30.81 104.6 31.17L105.68 34.05L102.67 34.05ZM117.33 29.89C116.52 29.09 115.4 28.69 113.95 28.69L111.1 28.69L111.1 37.97L113.68 37.97C115.24 37.97 116.45 37.57 117.28 36.76C118.11 35.95 118.53 34.78 118.53 33.24C118.53 31.81 118.13 30.69 117.33 29.89ZM116.41 36.09C115.76 36.72 114.79 37.04 113.5 37.04L112.18 37.04L112.18 29.62L113.75 29.62C114.96 29.62 115.86 29.93 116.47 30.55C117.08 31.16 117.38 32.07 117.38 33.28C117.38 34.52 117.06 35.46 116.41 36.09ZM129.1 29.82C128.35 28.97 127.3 28.55 125.96 28.55C124.59 28.55 123.52 28.96 122.78 29.79C122.03 30.62 121.66 31.8 121.66 33.31C121.66 34.83 122.03 36.01 122.77 36.85C123.52 37.68 124.58 38.1 125.95 38.1C127.29 38.1 128.34 37.67 129.09 36.82C129.85 35.97 130.22 34.8 130.22 33.32C130.22 31.83 129.85 30.66 129.1 29.82ZM123.61 30.49C124.15 29.84 124.93 29.51 125.96 29.51C126.99 29.51 127.77 29.83 128.29 30.48C128.82 31.12 129.08 32.07 129.08 33.32C129.08 34.58 128.81 35.53 128.29 36.18C127.76 36.83 126.98 37.15 125.95 37.15C124.93 37.15 124.15 36.83 123.61 36.18C123.07 35.53 122.8 34.58 122.8 33.32C122.8 32.08 123.07 31.13 123.61 30.49ZM142.59 33.95C142.22 33.56 141.55 33.18 140.58 32.84C139.99 32.63 139.56 32.44 139.28 32.27C139 32.1 138.8 31.91 138.68 31.7C138.56 31.5 138.5 31.24 138.5 30.91C138.5 30.48 138.66 30.14 138.98 29.89C139.31 29.65 139.75 29.52 140.33 29.52C141.05 29.52 141.8 29.68 142.57 30.01L142.91 29.07C142.13 28.73 141.28 28.56 140.35 28.56C139.46 28.56 138.75 28.77 138.21 29.19C137.67 29.62 137.4 30.19 137.4 30.9C137.4 31.58 137.59 32.13 137.96 32.56C138.33 32.98 138.95 33.35 139.82 33.66C140.44 33.88 140.9 34.07 141.2 34.25C141.51 34.42 141.72 34.61 141.85 34.81C141.98 35.02 142.05 35.28 142.05 35.6C142.05 36.09 141.86 36.47 141.5 36.74C141.13 37.02 140.59 37.15 139.87 37.15C139.43 37.15 138.98 37.11 138.53 37.01C138.08 36.92 137.66 36.79 137.28 36.63L137.28 37.67C137.88 37.96 138.73 38.1 139.83 38.1C140.85 38.1 141.66 37.87 142.25 37.41C142.85 36.96 143.14 36.32 143.14 35.5C143.14 34.87 142.96 34.35 142.59 33.95ZM151.1 33.95C150.73 33.56 150.06 33.18 149.08 32.84C148.5 32.63 148.07 32.44 147.79 32.27C147.5 32.1 147.3 31.91 147.18 31.7C147.07 31.5 147.01 31.24 147.01 30.91C147.01 30.48 147.17 30.14 147.49 29.89C147.81 29.65 148.26 29.52 148.83 29.52C149.56 29.52 150.31 29.68 151.08 30.01L151.41 29.07C150.64 28.73 149.79 28.56 148.86 28.56C147.97 28.56 147.26 28.77 146.72 29.19C146.18 29.62 145.91 30.19 145.91 30.9C145.91 31.58 146.1 32.13 146.47 32.56C146.84 32.98 147.46 33.35 148.32 33.66C148.94 33.88 149.41 34.07 149.71 34.25C150.01 34.42 150.23 34.61 150.36 34.81C150.49 35.02 150.55 35.28 150.55 35.6C150.55 36.09 150.37 36.47 150.01 36.74C149.64 37.02 149.1 37.15 148.38 37.15C147.93 37.15 147.49 37.11 147.04 37.01C146.59 36.92 146.17 36.79 145.79 36.63L145.79 37.67C146.38 37.96 147.23 38.1 148.34 38.1C149.36 38.1 150.16 37.87 150.76 37.41C151.35 36.96 151.65 36.32 151.65 35.5C151.65 34.87 151.47 34.35 151.1 33.95ZM160.09 37.97L160.09 36.99L155.98 36.99L155.98 28.69L154.9 28.69L154.9 37.97L160.09 37.97Z" />
		</g>
	</g>
</svg>